<svg width="100%" height="100%" viewBox="0 0 256 256" xmlns="http://www.w3.org/2000/svg"><path d="M256,40.96l0,174.08c0,22.606 -18.354,40.96 -40.96,40.96l-174.08,0c-22.606,0 -40.96,-18.354 -40.96,-40.96l0,-174.08c0,-22.606 18.354,-40.96 40.96,-40.96l174.08,0c22.606,0 40.96,18.354 40.96,40.96Z" style="fill:url(#_Linear1);"/><path d="M97.037,188.171l-50.307,-51.479c-4.756,-4.756 -4.756,-12.477 -0,-17.233l8.11,-8.11c4.756,-4.756 12.477,-4.756 17.233,0l34.5,33.833l77.353,-77.353c4.756,-4.756 12.477,-4.756 17.233,-0l8.11,8.11c4.756,4.756 4.756,12.477 -0,17.233l-94.999,94.999c-4.756,4.756 -12.477,4.756 -17.233,0Z" style="fill:#fff;"/><defs><linearGradient id="_Linear1" x1="0" y1="0" x2="1" y2="0" gradientUnits="userSpaceOnUse" gradientTransform="matrix(256,256,-256,256,0,0)"><stop offset="0" style="stop-color:#ffd842;stop-opacity:1"/><stop offset="1" style="stop-color:#7ccded;stop-opacity:1"/></linearGradient></defs></svg>